<svg xmlns="http://www.w3.org/2000/svg" fill="none" viewBox="0 0 110 110"><path fill="currentColor" fill-rule="evenodd" d="M105.05 0h-1.1v4.95h-9.9V0h-1.1v4.95h-9.9V0h-1.1v4.95h-9.9V0h-1.1v4.95h-9.9V0h-1.1v4.95h-9.9V0h-1.1v4.95h-9.9V0h-1.1v4.95h-9.9V0h-1.1v4.95h-9.9V0h-1.1v4.95h-9.9V0h-1.1v4.95H0v1.1h4.95v9.9H0v1.1h4.95v9.9H0v1.1h4.95v9.9H0v1.1h4.95v9.9H0v1.1h4.95v9.9H0v1.1h4.95v9.9H0v1.1h4.95v9.9H0v1.1h4.95v9.9H0v1.1h4.95v9.9H0v1.1h4.95V110h1.1v-4.95h9.9V110h1.1v-4.95h9.9V110h1.1v-4.95h9.9V110h1.1v-4.95h9.9V110h1.1v-4.95h9.9V110h1.1v-4.95h9.9V110h1.1v-4.95h9.9V110h1.1v-4.95h9.9V110h1.1v-4.95h9.9V110h1.1v-4.95H110v-1.1h-4.95v-9.9H110v-1.1h-4.95v-9.9H110v-1.1h-4.95v-9.9H110v-1.1h-4.95v-9.9H110v-1.1h-4.95v-9.9H110v-1.1h-4.95v-9.9H110v-1.1h-4.95v-9.9H110v-1.1h-4.95v-9.9H110v-1.1h-4.95v-9.9H110v-1.1h-4.95zm-11 15.95h9.9v-9.9h-9.9zm0 11h9.9v-9.9h-9.9zm0 11h9.9v-9.9h-9.9zm0 11h9.9v-9.9h-9.9zm0 11h9.9v-9.9h-9.9zm0 11h9.9v-9.9h-9.9zm0 11h9.9v-9.9h-9.9zm0 11h9.9v-9.9h-9.9zm0 11h9.9v-9.9h-9.9zm-78.1-9.9h-9.9v9.9h9.9zm0-11h-9.9v9.9h9.9zm0-11h-9.9v9.9h9.9zm0-11h-9.9v9.9h9.9zm0-11h-9.9v9.9h9.9zm0-11h-9.9v9.9h9.9zm0-11h-9.9v9.9h9.9zm0-11h-9.9v9.9h9.9zm0-11h-9.9v9.9h9.9zm67.1 9.9h9.9v-9.9h-9.9zm0 11h9.9v-9.9h-9.9zm0 11h9.9v-9.9h-9.9zm0 11h9.9v-9.9h-9.9zm0 11h9.9v-9.9h-9.9zm0 11h9.9v-9.9h-9.9zm0 11h9.9v-9.9h-9.9zm0 11h9.9v-9.9h-9.9zm-56.1-9.9h-9.9v9.9h9.9zm0-11h-9.9v9.9h9.9zm0-11h-9.9v9.9h9.9zm0-11h-9.9v9.9h9.9zm0-11h-9.9v9.9h9.9zm0-11h-9.9v9.9h9.9zm0-11h-9.9v9.9h9.9zm45.1 9.9h9.9v-9.9h-9.9zm0 11h9.9v-9.9h-9.9zm0 11h9.9v-9.9h-9.9zm0 11h9.9v-9.9h-9.9zm0 11h9.9v-9.9h-9.9zm0 11h9.9v-9.9h-9.9zm-34.1-9.9h-9.9v9.9h9.9zm0-11h-9.9v9.9h9.9zm0-11h-9.9v9.9h9.9zm0-11h-9.9v9.9h9.9zm0-11h-9.9v9.9h9.9zm23.1 9.9h9.9v-9.9h-9.9zm0 11h9.9v-9.9h-9.9zm0 11h9.9v-9.9h-9.9zm0 11h9.9v-9.9h-9.9zm-12.1-9.9h-9.9v9.9h9.9zm0-11h-9.9v9.9h9.9zm0-11h-9.9v9.9h9.9zm1.1 9.9h9.9v-9.9h-9.9zm0 11h9.9v-9.9h-9.9zm9.9 1.1h-9.9v9.9h9.9zm-9.9-23.1h9.9v-9.9h-9.9zm-11 0h9.9v-9.9h-9.9zm9.9 34.1h-9.9v9.9h9.9zm11 0h-9.9v9.9h9.9zm11 0h-9.9v9.9h9.9zm-9.9-45.1h9.9v-9.9h-9.9zm-11 0h9.9v-9.9h-9.9zm-11 0h9.9v-9.9h-9.9zm-11 0h9.9v-9.9h-9.9zm9.9 56.1h-9.9v9.9h9.9zm11 0h-9.9v9.9h9.9zm11 0h-9.9v9.9h9.9zm11 0h-9.9v9.9h9.9zm11 0h-9.9v9.9h9.9zm-9.9-67.1h9.9v-9.9h-9.9zm-11 0h9.9v-9.9h-9.9zm-11 0h9.9v-9.9h-9.9zm-11 0h9.9v-9.9h-9.9zm-11 0h9.9v-9.9h-9.9zm-11 0h9.9v-9.9h-9.9zm9.9 78.1h-9.9v9.9h9.9zm11 0h-9.9v9.9h9.9zm11 0h-9.9v9.9h9.9zm11 0h-9.9v9.9h9.9zm11 0h-9.9v9.9h9.9zm11 0h-9.9v9.9h9.9zm11 0h-9.9v9.9h9.9z" clip-rule="evenodd"/></svg>