<svg xmlns="http://www.w3.org/2000/svg" fill="none" viewBox="0 0 71 13"><path fill="currentColor" d="M61.351.163h4.421q1.36 0 2.337.408.986.407 1.515 1.206t.529 1.964q0 .954-.326 1.638a3.1 3.1 0 0 1-.904 1.133 4.7 4.7 0 0 1-1.36.717l-.773.408h-3.843l-.016-1.908h2.858q.642 0 1.066-.228.423-.228.635-.635.22-.408.22-.946 0-.57-.212-.986a1.43 1.43 0 0 0-.643-.636q-.431-.22-1.083-.22h-1.978v9.951H61.35zM67.98 12.03l-2.704-5.29 2.58-.016 2.736 5.191v.114zm-8.053-1.908v1.907h-6.31v-1.907zM54.414.163V12.03h-2.442V.163zm4.69 4.833v1.858h-5.488V4.996zm.814-4.833v1.915h-6.302V.163zm-12.986 0V12.03h-2.435V.163zm3.647 0v1.915h-9.673V.163zm-19.142 0h4.421q1.36 0 2.337.408.986.407 1.514 1.206.53.798.53 1.964 0 .954-.326 1.638a3.1 3.1 0 0 1-.904 1.133 4.7 4.7 0 0 1-1.36.717l-.773.408h-3.843l-.016-1.908h2.857q.644 0 1.067-.228t.635-.635a1.96 1.96 0 0 0 .22-.946q0-.57-.212-.986a1.43 1.43 0 0 0-.643-.636q-.432-.22-1.083-.22H33.88v9.951h-2.443zm6.628 11.866L35.362 6.74l2.58-.016 2.736 5.191v.114zM25.054 2.192l-3.225 9.837h-2.597L23.637.163h1.653zm2.678 9.837L24.5 2.192 24.24.163h1.669l4.429 11.866zm-.146-4.417v1.915h-6.261V7.612zM16.073.163V12.03h-2.435V.163zm3.647 0v1.915h-9.673V.163zM6.668 8.924q0-.318-.097-.57a1.1 1.1 0 0 0-.342-.473 3 3 0 0 0-.709-.432 10 10 0 0 0-1.18-.44 15 15 0 0 1-1.53-.587 6.3 6.3 0 0 1-1.271-.758 3.4 3.4 0 0 1-.863-1.019q-.31-.578-.31-1.344 0-.742.326-1.345.325-.612.912-1.043A4.3 4.3 0 0 1 2.988.236 6.3 6.3 0 0 1 4.755 0q1.311 0 2.288.473t1.514 1.296q.546.822.546 1.882H6.677q0-.522-.22-.913a1.5 1.5 0 0 0-.652-.627q-.431-.228-1.09-.228-.636 0-1.06.195a1.4 1.4 0 0 0-.634.514 1.26 1.26 0 0 0-.212.717q0 .3.147.546.155.244.456.456.3.213.74.4t1.018.366q.969.294 1.702.66.74.368 1.238.824.495.456.749 1.035.252.578.252 1.312 0 .774-.301 1.385-.301.612-.871 1.035-.57.424-1.36.644a6.6 6.6 0 0 1-1.767.22 6.7 6.7 0 0 1-1.734-.228 5.3 5.3 0 0 1-1.555-.709 3.6 3.6 0 0 1-1.108-1.206Q0 9.314 0 8.313h2.45q0 .555.172.937.171.383.48.62.318.236.75.342a4 4 0 0 0 .96.106q.634 0 1.042-.18.415-.18.61-.497.205-.317.204-.717"/></svg>
