<svg xmlns="http://www.w3.org/2000/svg" version="1.1" xmlns:xlink="http://www.w3.org/1999/xlink" width="1000" height="1000"><metadata><rdf:RDF xmlns:rdf="http://www.w3.org/1999/02/22-rdf-syntax-ns#" xmlns:dc="http://purl.org/dc/elements/1.1/"><rdf:Description><dc:creator>RealFaviconGenerator</dc:creator><dc:source>https://realfavicongenerator.net</dc:source></rdf:Description></rdf:RDF></metadata><g clip-path="url(#SvgjsClipPath1091)"><rect width="1000" height="1000" fill="#121114"></rect><g transform="matrix(18.181818181818183,0,0,18.181818181818183,154.5454545454545,99.99999999999994)"><svg xmlns="http://www.w3.org/2000/svg" fill="none" viewBox="0 0 38 44" width="38" height="44"><path fill="#d9baff" d="M.331 12.03a.327.327 0 0 0 .331-.325.327.327 0 0 0-.33-.323.327.327 0 0 0-.332.323c0 .18.148.324.331.324m7.332-.054a.327.327 0 0 0 .331-.323.327.327 0 0 0-.331-.324.327.327 0 0 0-.331.324c0 .178.148.323.33.323m-3.665 2.112a.327.327 0 0 0 .331-.324.327.327 0 0 0-.33-.324.327.327 0 0 0-.332.324c0 .179.148.324.331.324M.331 16.206a.33.33 0 0 0 .331-.324.327.327 0 0 0-.33-.323.327.327 0 0 0-.332.323c0 .179.148.324.331.324m18.329-6.065c.38 0 .686-.3.686-.67s-.307-.67-.685-.67c-.38 0-.686.3-.686.67s.307.67.686.67m-3.666 2.119c.379 0 .686-.3.686-.67s-.307-.67-.686-.67-.686.3-.686.67.307.67.686.67m-3.666 2.12c.379 0 .686-.3.686-.67s-.307-.671-.686-.671-.686.3-.686.67.307.67.686.67m-3.666 2.12c.379 0 .686-.3.686-.67s-.307-.671-.686-.671-.686.3-.686.67.307.67.686.67M3.997 18.61c.379 0 .686-.3.686-.67s-.307-.67-.686-.67-.686.3-.686.67.307.67.686.67M.331 20.383a.327.327 0 0 0 .331-.324.327.327 0 0 0-.33-.324.327.327 0 0 0-.332.324c0 .179.148.323.331.323m18.329-5.394c.758 0 1.372-.6 1.372-1.34s-.614-1.341-1.371-1.341c-.758 0-1.372.6-1.372 1.34s.614 1.341 1.372 1.341m-3.666 2.12c.758 0 1.372-.6 1.372-1.341 0-.74-.615-1.341-1.372-1.341s-1.372.6-1.372 1.34.614 1.342 1.372 1.342m-3.666 2.119c.757 0 1.372-.6 1.372-1.341 0-.74-.615-1.341-1.372-1.341s-1.372.6-1.372 1.34.614 1.342 1.372 1.342m-3.666 2.111c.757 0 1.372-.6 1.372-1.34s-.615-1.342-1.372-1.342-1.372.6-1.372 1.341c0 .74.614 1.341 1.372 1.341m-3.666 1.449c.379 0 .686-.3.686-.67s-.307-.671-.686-.671-.686.3-.686.67.307.67.686.67M.331 24.559a.327.327 0 0 0 .331-.324.33.33 0 0 0-.33-.323.327.327 0 0 0-.332.323c0 .18.148.324.331.324m18.329-5.394c.758 0 1.372-.6 1.372-1.34s-.614-1.342-1.371-1.342c-.758 0-1.372.6-1.372 1.341 0 .74.614 1.34 1.372 1.34m-3.666 2.12c.758 0 1.372-.6 1.372-1.34s-.615-1.342-1.372-1.342-1.372.6-1.372 1.341c0 .74.614 1.341 1.372 1.341m-3.666 2.112c.757 0 1.372-.6 1.372-1.341 0-.74-.615-1.341-1.372-1.341s-1.372.6-1.372 1.34.614 1.342 1.372 1.342m-3.666 2.119c.757 0 1.372-.6 1.372-1.341 0-.74-.615-1.341-1.372-1.341s-1.372.6-1.372 1.34.614 1.342 1.372 1.342m-3.666 1.448c.379 0 .686-.3.686-.67s-.307-.67-.686-.67-.686.3-.686.67.307.67.686.67M.331 28.736a.327.327 0 0 0 .331-.324.327.327 0 0 0-.33-.323.327.327 0 0 0-.332.323c0 .179.148.324.331.324m18.329-6.065c.38 0 .686-.3.686-.67s-.307-.67-.685-.67c-.38 0-.686.3-.686.67s.307.67.686.67m-3.666 2.112c.379 0 .686-.3.686-.67s-.307-.671-.686-.671-.686.3-.686.67.307.67.686.67m-3.666 2.12c.379 0 .686-.3.686-.67s-.307-.671-.686-.671-.686.3-.686.67.307.67.686.67M7.663 29.02c.379 0 .686-.3.686-.67s-.307-.67-.686-.67-.686.3-.686.67.307.67.686.67m-3.666 1.773a.327.327 0 0 0 .331-.323.327.327 0 0 0-.33-.324.327.327 0 0 0-.332.324c0 .178.148.323.331.323M.331 32.912a.327.327 0 0 0 .331-.323.33.33 0 0 0-.33-.324.327.327 0 0 0-.332.324c0 .178.148.323.331.323m18.329-6.419a.327.327 0 0 0 .332-.323.33.33 0 0 0-.331-.324.327.327 0 0 0-.332.324c0 .178.149.323.332.323m-3.666 2.119a.327.327 0 0 0 .33-.323.327.327 0 0 0-.33-.324.327.327 0 0 0-.331.324c0 .178.148.323.33.323m-3.665 2.12a.327.327 0 0 0 .331-.324.327.327 0 0 0-.331-.324.33.33 0 0 0-.331.324c0 .179.148.323.331.323M7.663 32.85a.327.327 0 0 0 .331-.323.327.327 0 0 0-.331-.324.327.327 0 0 0-.331.324c0 .179.148.324.33.324M3.997 34.97a.327.327 0 0 0 .331-.324.327.327 0 0 0-.33-.324.33.33 0 0 0-.332.324c0 .179.148.324.331.324m14.663-4.3a.327.327 0 0 0 .332-.324.327.327 0 0 0-.331-.323.327.327 0 0 0-.332.323c0 .18.149.324.332.324m-3.666 2.12a.327.327 0 0 0 .33-.325.327.327 0 0 0-.33-.323.327.327 0 0 0-.331.323c0 .18.148.324.33.324m-3.665 2.119a.327.327 0 0 0 .331-.323.327.327 0 0 0-.331-.324.33.33 0 0 0-.331.324c0 .178.148.323.331.323m-3.666 2.12a.327.327 0 0 0 .331-.324.327.327 0 0 0-.331-.324.327.327 0 0 0-.331.324c0 .179.148.324.33.324m10.998-2.181a.327.327 0 0 0 .332-.324.33.33 0 0 0-.331-.324.327.327 0 0 0-.332.324c0 .179.149.324.332.324m-3.666 2.119a.327.327 0 0 0 .33-.324.327.327 0 0 0-.33-.324.327.327 0 0 0-.331.324c0 .179.148.324.33.324m-3.665 2.119a.327.327 0 0 0 .331-.324.327.327 0 0 0-.331-.323.33.33 0 0 0-.331.323c0 .18.148.324.331.324m7.331-.062a.327.327 0 0 0 .332-.324.327.327 0 0 0-.331-.323.327.327 0 0 0-.332.324c0 .178.149.323.332.323m-3.666 2.119a.327.327 0 0 0 .33-.323.327.327 0 0 0-.33-.324.33.33 0 0 0-.331.324c0 .178.148.323.33.323M18.66 43.2a.327.327 0 0 0 .332-.324.327.327 0 0 0-.331-.323.327.327 0 0 0-.332.323c0 .18.149.324.332.324m18.282-31.17a.327.327 0 0 0 .33-.325.327.327 0 0 0-.33-.323.327.327 0 0 0-.331.323c0 .18.148.324.33.324m-7.339-.054a.327.327 0 0 0 .331-.323.327.327 0 0 0-.33-.324.327.327 0 0 0-.332.324c0 .178.148.323.331.323m3.674 2.112a.327.327 0 0 0 .331-.324.327.327 0 0 0-.331-.324.33.33 0 0 0-.331.324c0 .179.148.324.331.324m3.666 2.119a.33.33 0 0 0 .33-.324.327.327 0 0 0-.33-.323.327.327 0 0 0-.331.323c0 .179.148.324.33.324"></path><path fill="#d9baff" d="M18.605 10.141c.38 0 .686-.3.686-.67s-.307-.67-.686-.67c-.378 0-.686.3-.686.67s.308.67.686.67m3.667 2.119c.378 0 .685-.3.685-.67s-.307-.67-.686-.67c-.378 0-.686.3-.686.67s.308.67.686.67m3.666 2.12c.38 0 .686-.3.686-.67s-.307-.671-.686-.671c-.378 0-.685.3-.685.67s.307.67.685.67m3.666 2.12c.38 0 .686-.3.686-.67s-.307-.671-.686-.671-.686.3-.686.67.307.67.686.67m3.674 2.112c.379 0 .686-.3.686-.67s-.307-.67-.686-.67-.686.3-.686.67.307.67.686.67m3.666 1.773a.327.327 0 0 0 .33-.324.327.327 0 0 0-.33-.324.33.33 0 0 0-.331.324c0 .179.148.323.33.323m-18.336-5.394c.757 0 1.371-.6 1.371-1.34s-.614-1.341-1.372-1.341c-.757 0-1.371.6-1.371 1.34s.614 1.341 1.371 1.341m3.667 2.12c.757 0 1.371-.6 1.371-1.341 0-.74-.614-1.341-1.371-1.341-.758 0-1.372.6-1.372 1.34s.614 1.342 1.372 1.342m3.665 2.119c.758 0 1.372-.6 1.372-1.341 0-.74-.614-1.341-1.372-1.341-.757 0-1.371.6-1.371 1.34s.614 1.342 1.371 1.342m3.666 2.111c.758 0 1.372-.6 1.372-1.34s-.614-1.342-1.372-1.342c-.757 0-1.372.6-1.372 1.341 0 .74.615 1.341 1.372 1.341m3.674 1.449c.379 0 .686-.3.686-.67s-.307-.671-.686-.671-.686.3-.686.67.307.67.686.67m3.666 1.773a.327.327 0 0 0 .33-.324.33.33 0 0 0-.33-.323.33.33 0 0 0-.331.323c0 .18.148.324.33.324m-18.336-5.394c.757 0 1.371-.6 1.371-1.34s-.614-1.342-1.372-1.342c-.757 0-1.371.6-1.371 1.341 0 .74.614 1.34 1.371 1.34m3.667 2.12c.757 0 1.371-.6 1.371-1.34s-.614-1.342-1.371-1.342c-.758 0-1.372.6-1.372 1.341 0 .74.614 1.341 1.372 1.341m3.665 2.112c.758 0 1.372-.6 1.372-1.341 0-.74-.614-1.341-1.372-1.341-.757 0-1.371.6-1.371 1.34s.614 1.342 1.371 1.342m3.666 2.119c.758 0 1.372-.6 1.372-1.341 0-.74-.614-1.341-1.372-1.341-.757 0-1.372.6-1.372 1.34s.615 1.342 1.372 1.342m3.674 1.448c.379 0 .686-.3.686-.67s-.307-.67-.686-.67-.686.3-.686.67.307.67.686.67m3.666 1.773a.327.327 0 0 0 .33-.324.327.327 0 0 0-.33-.323.33.33 0 0 0-.331.323c0 .179.148.324.33.324m-18.337-6.065c.38 0 .686-.3.686-.67s-.307-.67-.686-.67c-.378 0-.686.3-.686.67s.308.67.686.67m3.667 2.112c.378 0 .685-.3.685-.67s-.307-.671-.686-.671c-.378 0-.686.3-.686.67s.308.67.686.67m3.666 2.12c.38 0 .686-.3.686-.67s-.307-.671-.686-.671c-.378 0-.685.3-.685.67s.307.67.685.67m3.666 2.119c.38 0 .686-.3.686-.67s-.307-.67-.686-.67-.686.3-.686.67.307.67.686.67m3.674 1.773a.327.327 0 0 0 .331-.323.327.327 0 0 0-.331-.324.327.327 0 0 0-.331.324c0 .178.148.323.331.323m3.666 2.119a.327.327 0 0 0 .33-.323.33.33 0 0 0-.33-.324.33.33 0 0 0-.331.324c0 .178.148.323.33.323m-18.336-6.419a.327.327 0 0 0 .33-.323.33.33 0 0 0-.33-.324.33.33 0 0 0-.332.324c0 .178.149.323.332.323m3.665 2.119a.327.327 0 0 0 .331-.323.327.327 0 0 0-.33-.324.327.327 0 0 0-.332.324c0 .178.148.323.331.323m3.666 2.12a.327.327 0 0 0 .331-.324.327.327 0 0 0-.33-.324.327.327 0 0 0-.332.324c0 .179.148.323.331.323m3.666 2.119a.327.327 0 0 0 .331-.323.327.327 0 0 0-.33-.324.327.327 0 0 0-.332.324c0 .179.148.324.331.324m3.674 2.119a.327.327 0 0 0 .331-.324.327.327 0 0 0-.331-.324.33.33 0 0 0-.331.324c0 .179.148.324.331.324m-14.671-4.3a.327.327 0 0 0 .33-.324.327.327 0 0 0-.33-.323.33.33 0 0 0-.332.323c0 .18.149.324.332.324m3.665 2.12a.327.327 0 0 0 .331-.325.327.327 0 0 0-.33-.323.327.327 0 0 0-.332.323c0 .18.148.324.331.324m3.666 2.119a.327.327 0 0 0 .331-.323.327.327 0 0 0-.33-.324.327.327 0 0 0-.332.324c0 .178.148.323.331.323m3.666 2.12a.327.327 0 0 0 .331-.324.327.327 0 0 0-.33-.324.327.327 0 0 0-.332.324c0 .179.148.324.331.324m-10.997-2.181a.327.327 0 0 0 .33-.324.33.33 0 0 0-.33-.324.33.33 0 0 0-.332.324c0 .179.149.324.332.324m3.665 2.119a.327.327 0 0 0 .331-.324.327.327 0 0 0-.33-.324.327.327 0 0 0-.332.324c0 .179.148.324.331.324m3.666 2.119a.327.327 0 0 0 .331-.324.327.327 0 0 0-.33-.323.327.327 0 0 0-.332.323c0 .18.148.324.331.324m-7.331-.062a.327.327 0 0 0 .33-.324.327.327 0 0 0-.33-.323.327.327 0 0 0-.332.324c0 .178.149.323.332.323m3.665 2.119a.327.327 0 0 0 .331-.323.327.327 0 0 0-.33-.324.327.327 0 0 0-.332.324c0 .178.148.323.331.323M18.606 43.2a.327.327 0 0 0 .33-.324.327.327 0 0 0-.33-.323.327.327 0 0 0-.332.323c0 .18.149.324.332.324M18.227.647a.327.327 0 0 0 .331-.323.33.33 0 0 0-.33-.324.33.33 0 0 0-.332.324c0 .178.148.323.331.323m-3.666 2.119a.327.327 0 0 0 .331-.323.327.327 0 0 0-.33-.324.33.33 0 0 0-.332.324c0 .179.148.323.331.323m-3.666 2.12a.327.327 0 0 0 .331-.324.327.327 0 0 0-.33-.324.33.33 0 0 0-.332.324c0 .179.148.324.331.324M7.23 7.005a.327.327 0 0 0 .33-.324.33.33 0 0 0-.33-.324.327.327 0 0 0-.332.324c0 .179.148.324.331.324M3.563 9.124a.327.327 0 0 0 .332-.324.33.33 0 0 0-.332-.323.327.327 0 0 0-.33.323c0 .179.148.324.33.324m14.664-4.3a.33.33 0 0 0 .331-.324.327.327 0 0 0-.33-.323.327.327 0 0 0-.332.323c0 .18.148.324.331.324m-3.666 2.119a.327.327 0 0 0 .331-.323.327.327 0 0 0-.33-.324.327.327 0 0 0-.332.324c0 .178.148.323.331.323m-3.666 2.119a.327.327 0 0 0 .331-.323.327.327 0 0 0-.33-.324.327.327 0 0 0-.332.324c0 .178.148.323.331.323"></path><path fill="#d9baff" d="M18.172.647a.327.327 0 0 0 .331-.323.327.327 0 0 0-.331-.324.33.33 0 0 0-.331.324c0 .178.148.323.33.323m3.667 2.119a.327.327 0 0 0 .33-.323.33.33 0 0 0-.33-.324.33.33 0 0 0-.331.324c0 .179.148.323.33.323m3.667 2.12a.327.327 0 0 0 .33-.324.33.33 0 0 0-.33-.324.327.327 0 0 0-.331.324c0 .179.148.324.33.324m3.667 2.119a.327.327 0 0 0 .33-.324.327.327 0 0 0-.33-.324.327.327 0 0 0-.332.324c0 .179.149.324.332.324m3.673 2.119a.327.327 0 0 0 .331-.324.327.327 0 0 0-.33-.323.327.327 0 0 0-.332.323c0 .179.148.324.331.324m-14.671-4.3a.327.327 0 0 0 .331-.324.327.327 0 0 0-.331-.323.327.327 0 0 0-.331.323c0 .18.148.324.33.324m3.667 2.119a.33.33 0 0 0 .33-.323.327.327 0 0 0-.33-.324.327.327 0 0 0-.331.324c0 .178.148.323.33.323m3.667 2.119a.33.33 0 0 0 .33-.323.327.327 0 0 0-.33-.324.327.327 0 0 0-.331.324c0 .178.148.323.33.323"></path></svg></g></g><defs><clipPath id="SvgjsClipPath1091"><rect width="1000" height="1000" x="0" y="0" rx="200" ry="200"></rect></clipPath></defs></svg>