<svg xmlns="http://www.w3.org/2000/svg" fill="none" viewBox="0 0 24 24">
  <path fill="currentColor"
    d="M17.728 3A3.27 3.27 0 0 1 21 6.272v11.456A3.27 3.27 0 0 1 17.727 21H6.272A3.27 3.27 0 0 1 3 17.727V6.272A3.27 3.27 0 0 1 6.272 3zM9.619 14.678a1.936 1.936 0 0 0-1.367 3.302 1.934 1.934 0 0 0 3.302-1.369v-1.933zm0-4.613a1.936 1.936 0 0 0-1.368 3.302c.363.363.855.568 1.368.568h1.935v-3.87zm4.463 0a1.935 1.935 0 1 0 .003 3.87 1.935 1.935 0 0 0-.003-3.87m-1.934-4.61v4.164h2.083a2.083 2.083 0 0 0 0-4.165zm-2.529 0a1.935 1.935 0 1 0 .001 3.867h1.934V5.454z" />
</svg>
