<svg xmlns="http://www.w3.org/2000/svg" fill="none" viewBox="0 0 24 24"><path fill="currentColor" d="M11.982 3C16.956 3 21 7.192 21 12.327c0 4.065-2.496 7.35-5.678 8.603-.527.217-.966-.092-.966-.636v-1.888c0-.997-.405-1.868-1.001-2.267 2.355-.309 3.989-1.997 3.989-4.229 0-.943-.299-1.869-.862-2.558.23-.617.193-1.888-.052-2.378-.704-.09-1.67.29-2.215.798-.632-.2-1.337-.307-2.197-.307s-1.565.108-2.233.326c-.563-.526-1.511-.908-2.215-.817-.263.526-.298 1.797-.07 2.396-.527.653-.844 1.633-.844 2.54 0 2.232 1.635 3.957 3.955 4.247-.21.182-.44.454-.738.762-.404.417-.686.581-1.125.581-.44 0-.808-.237-1.16-.763-.457-.671-.897-.998-1.406-.998-.352 0-.704.163-.704.381 0 .11.07.2.282.219.404.054.615.344.808.834.492 1.216 1.178 1.869 2.338 1.869a2.2 2.2 0 0 0 .844-.182v1.453a.67.67 0 0 1-.932.634 8.9 8.9 0 0 1-4.226-3.362A9.36 9.36 0 0 1 3 12.327C3 7.192 7.008 3 11.982 3"/></svg>
