<svg xmlns="http://www.w3.org/2000/svg" fill="none" viewBox="0 0 24 24"><path fill="currentColor" d="M12 3a9 9 0 1 0 0 18 9 9 0 0 0 0-18m7.714 8.357h-3.857a15.6 15.6 0 0 0-1.793-6.782 7.71 7.71 0 0 1 5.65 6.782M12 19.714q-.215.015-.43 0a14.05 14.05 0 0 1-2.141-7.071h5.142a14.05 14.05 0 0 1-2.121 7.071q-.225.015-.45 0m-2.571-8.357a14.05 14.05 0 0 1 2.121-7.071q.43-.048.861 0a14.05 14.05 0 0 1 2.16 7.071zm.488-6.782a15.6 15.6 0 0 0-1.774 6.782H4.286a7.71 7.71 0 0 1 5.65-6.782zm-5.6 8.068h3.858a15.6 15.6 0 0 0 1.768 6.782 7.71 7.71 0 0 1-5.625-6.782m9.747 6.782a15.6 15.6 0 0 0 1.793-6.782h3.857a7.71 7.71 0 0 1-5.65 6.782"/></svg>
